<?xml version="1.0" encoding="utf-8"?>
<!-- Generator: Adobe Illustrator 21.0.0, SVG Export Plug-In . SVG Version: 6.00 Build 0)  -->
<svg version="1.1" id="圖層_1" xmlns="http://www.w3.org/2000/svg" xmlns:xlink="http://www.w3.org/1999/xlink" x="0px" y="0px"
	 viewBox="0 0 46 33" style="enable-background:new 0 0 46 33;" xml:space="preserve">
<style type="text/css">
	.st0{fill:#6B6B6B;}
</style>
<path class="st0" d="M46,1c0-0.5-0.4-1-1-1H1C0.4,0,0,0.4,0,1V32c0,0.5,0.4,1,1,1H45c0.5,0,1-0.4,1-1V1z M42.7,2L23.1,20.9L3.6,2
	H42.7z M2,31V3.6l20.4,19.6c0.2,0.2,0.5,0.3,0.7,0.3c0.2,0,0.5-0.1,0.7-0.3L44,3.6V31H2z"/>
</svg>
