<?xml version="1.0" encoding="utf-8"?>
<!-- Generator: Adobe Illustrator 21.0.0, SVG Export Plug-In . SVG Version: 6.00 Build 0)  -->
<svg version="1.1" id="圖層_1" xmlns="http://www.w3.org/2000/svg" xmlns:xlink="http://www.w3.org/1999/xlink" x="0px" y="0px"
	 viewBox="0 0 24 45" style="enable-background:new 0 0 24 45;" xml:space="preserve">
<style type="text/css">
	.st0{fill:#6B6B6B;}
</style>
<path class="st0" d="M4,45c-0.1,0-0.2,0-0.3-0.1c-0.4-0.2-0.7-0.6-0.6-1.1L5.8,24H1c-0.3,0-0.6-0.2-0.8-0.4C0,23.3,0,23,0,22.7l7-22
	C7.2,0.3,7.6,0,8,0h15c0.3,0,0.7,0.2,0.8,0.5c0.2,0.3,0.2,0.7,0.1,1L17.6,15H22c0.4,0,0.7,0.2,0.9,0.5c0.2,0.3,0.2,0.7,0,1l-18,28
	C4.7,44.8,4.3,45,4,45z M2.4,22H7c0.3,0,0.6,0.1,0.8,0.3C7.9,22.6,8,22.9,8,23.1L5.6,39.6L20.2,17H16c-0.3,0-0.7-0.2-0.8-0.5
	c-0.2-0.3-0.2-0.7-0.1-1L21.4,2H8.7L2.4,22z"/>
</svg>
