<?xml version="1.0" encoding="utf-8"?>
<!-- Generator: Adobe Illustrator 21.0.0, SVG Export Plug-In . SVG Version: 6.00 Build 0)  -->
<svg version="1.1" id="圖層_1" xmlns="http://www.w3.org/2000/svg" xmlns:xlink="http://www.w3.org/1999/xlink" x="0px" y="0px"
	 viewBox="0 0 45 44.6" style="enable-background:new 0 0 45 44.6;" xml:space="preserve">
<style type="text/css">
	.st0{fill:#6B6B6B;}
</style>
<path class="st0" d="M44.7,8.8l-8.6-8.6c-0.4-0.4-1-0.4-1.4,0L3,32.1c-0.1,0.1-0.2,0.3-0.3,0.4L0,43.4c-0.1,0.3,0,0.7,0.2,0.9
	c0.2,0.2,0.4,0.3,0.7,0.3c0.1,0,0.1,0,0.2,0l11.3-2.3c0.2,0,0.4-0.1,0.5-0.3l31.8-31.8C45.1,9.8,45.1,9.2,44.7,8.8z M29.7,8.3
	l7.1,7.1L35.3,17l-7.1-7.1c0,0-0.1-0.1-0.1-0.1l1.6-1.6C29.7,8.2,29.7,8.2,29.7,8.3z M3.4,37.9l3.5,3.5l-4.7,0.9L3.4,37.9z
	 M11.8,40.5L9,41c0-0.2-0.1-0.3-0.2-0.5L4.2,36c-0.1-0.1-0.2-0.2-0.3-0.2l0.6-2.6l22.2-22.2c0,0,0,0.1,0.1,0.1l7.1,7.1L11.8,40.5z
	 M38.2,14l-7.1-7.1c0,0-0.1-0.1-0.1-0.1l4.5-4.5l7.2,7.2L38.2,14z"/>
</svg>
